<svg id="Capa_1" enable-background="new 0 0 512 512" height="512" viewBox="0 0 512 512" width="512" xmlns="http://www.w3.org/2000/svg"><g><g><circle cx="256" cy="256" fill="#dbedff" r="256"/><path d="m49.152 256c0-133.093 101.571-242.45 231.424-254.82-8.089-.771-16.285-1.18-24.576-1.18-141.385 0-256 114.615-256 256s114.615 256 256 256c8.291 0 16.487-.409 24.576-1.18-129.853-12.37-231.424-121.727-231.424-254.82z" fill="#b5dcff"/><circle cx="256" cy="256" fill="#8479c2" r="224.767"/><path d="m66.775 256c0-118.154 91.169-215.009 206.996-224.069-5.864-.459-11.789-.698-17.771-.698-124.135.001-224.766 100.632-224.766 224.767s100.631 224.767 224.766 224.767c5.982 0 11.907-.239 17.771-.698-115.828-9.06-206.996-105.915-206.996-224.069z" fill="#6e60b8"/></g><circle cx="256" cy="256" fill="#ffd500" r="24.123"/><path d="m254.283 256c0-9.278 5.241-17.327 12.92-21.363-3.348-1.76-7.158-2.76-11.203-2.76-13.323 0-24.123 10.8-24.123 24.123s10.801 24.123 24.123 24.123c4.045 0 7.855-1.001 11.203-2.76-7.679-4.036-12.92-12.085-12.92-21.363z" fill="#fbc700"/><g><path d="m256 449.458c-19.04 0-35.396-20.705-47.299-59.876-10.875-35.787-16.864-83.223-16.864-133.571 0-50.37 5.989-97.806 16.864-133.593 11.903-39.171 28.259-59.876 47.299-59.876s35.396 20.705 47.3 59.876c10.875 35.787 16.864 83.223 16.864 133.571v.011c0 50.359-5.989 97.795-16.864 133.582-11.904 39.171-28.26 59.876-47.3 59.876zm0-371.463c-8.532 0-21.554 12.851-32.514 48.916-10.444 34.37-16.196 80.21-16.196 129.078 0 48.89 5.752 94.73 16.196 129.1 10.96 36.066 23.982 48.916 32.514 48.916 8.533 0 21.555-12.851 32.514-48.916 10.444-34.37 16.196-80.21 16.196-129.078v-.022c0-48.868-5.752-94.708-16.196-129.078-10.959-36.066-23.982-48.916-32.514-48.916z" fill="#8bcaff"/></g><g><path d="m385.295 368.703c-10.586 0-23.048-1.644-37.259-4.95-36.429-8.475-80.505-27.007-124.108-52.181-.006-.004-.013-.007-.019-.011-.007-.004-.014-.008-.021-.012-43.613-25.185-81.678-54.077-107.223-81.378-27.972-29.894-37.725-54.411-28.205-70.901s35.631-20.299 75.504-11.025c36.429 8.475 80.505 27.007 124.108 52.181.006.003.012.007.017.01.001 0 .001.001.002.001 43.602 25.174 81.689 54.079 107.244 81.39 27.972 29.894 37.725 54.411 28.205 70.901-6.128 10.614-19.127 15.975-38.245 15.975zm-153.63-70.507c42.318 24.432 84.887 42.368 119.872 50.507 36.713 8.541 54.353 3.689 58.62-3.7 4.266-7.389-.352-25.092-26.106-52.617-24.543-26.23-61.366-54.131-103.686-78.565-.001-.001-.007-.004-.012-.007-.003-.002-.005-.003-.007-.004-42.321-24.434-84.896-42.373-119.883-50.513-36.713-8.541-54.354-3.689-58.62 3.7s.352 25.092 26.106 52.616c24.538 26.225 61.348 54.119 103.659 78.549.018.01.036.021.054.031.001.002.002.002.003.003zm-3.883 6.68h.011z" fill="#8bcaff"/></g><g><path d="m126.705 368.703c-19.121 0-32.117-5.361-38.245-15.974-9.52-16.489.233-41.006 28.205-70.901 25.554-27.311 63.641-56.216 107.244-81.39.001-.001.002-.001.003-.002.006-.003.011-.007.017-.01 43.603-25.174 87.679-43.706 124.108-52.181 39.875-9.276 65.984-5.464 75.504 11.025s-.233 41.006-28.205 70.901c-25.554 27.311-63.641 56.216-107.244 81.39h-.001c-.006.004-.013.007-.019.011-43.603 25.174-87.679 43.706-124.108 52.181-14.208 3.306-26.674 4.95-37.259 4.95zm104.907-154.869c-42.311 24.431-79.125 52.327-103.663 78.552-25.754 27.525-30.372 45.227-26.106 52.617 4.267 7.389 21.907 12.241 58.62 3.7 34.987-8.14 77.562-26.079 119.883-50.513.008-.005.017-.01.025-.015 42.317-24.432 79.14-52.334 103.681-78.562 25.754-27.525 30.372-45.227 26.106-52.616s-21.906-12.239-58.62-3.7c-34.985 8.139-77.561 26.079-119.879 50.511-.016.009-.031.018-.047.026z" fill="#8bcaff"/></g></g></svg>