<svg id="Warstwa_1" data-name="Warstwa 1" xmlns="http://www.w3.org/2000/svg" viewBox="0 0 32 13.69"><defs><style>.cls-1{fill:#fff;}</style></defs><title>bip</title><polygon class="cls-1" points="0 2.87 7.46 10.44 7.46 2.87 0 2.87"/><path class="cls-1" d="M27.9,11.57a4.11,4.11,0,0,0-4.1,4.1v5.72a1,1,0,1,0,2,0V19.17a4.09,4.09,0,1,0,2.1-7.6m0,6.2a2.1,2.1,0,1,1,2.1-2.1,2.1,2.1,0,0,1-2.1,2.1M14.48,11.58a4.07,4.07,0,0,0-2.1.59V9.7a1,1,0,0,0-2,0v6h0a4.1,4.1,0,1,0,4.1-4.1m0,6.19a2.1,2.1,0,1,1,2.1-2.09,2.1,2.1,0,0,1-2.1,2.09m7.71.1c-.14-.06-.55-.27-.55-1.86V12.58a1,1,0,1,0-2,0V16c0,1.21.17,2.91,1.64,3.65a1,1,0,0,0,.91-1.79m-1.55-7a1.1,1.1,0,1,0-1.1-1.1,1.1,1.1,0,0,0,1.1,1.1" transform="translate(0 -8.7)"/></svg>